<?xml version='1.0' encoding='UTF-8'?>
<!DOCTYPE svg PUBLIC "-//W3C//DTD SVG 1.0//EN" "http://www.w3.org/TR/2001/REC-SVG-20010904/DTD/svg10.dtd">
<svg viewBox="0 0 1024 280" xmlns="http://www.w3.org/2000/svg" xmlns:inkspace="http://www.inkscape.org/namespaces/inkscape" xmlns:xlink="http://www.w3.org/1999/xlink">
  <defs id="defs_block">
    <filter height="1.504" id="filter_blur" inkspace:collect="always" width="1.1575" x="-0.07875" y="-0.252">
      <feGaussianBlur id="feGaussianBlur3780" inkspace:collect="always" stdDeviation="4.2" />
    </filter>
  </defs>
  <title>blockdiag</title>
  <desc />
  <rect fill="rgb(243,152,0)" height="140" style="filter:url(#filter_blur)" width="528" x="440" y="30" />
  <rect fill="rgb(173,216,230)" height="60" style="filter:url(#filter_blur)" width="144" x="440" y="190" />
  <rect fill="rgb(144,238,144)" height="60" style="filter:url(#filter_blur)" width="144" x="248" y="30" />
  <rect fill="rgb(127,255,0)" height="140" style="filter:url(#filter_blur)" width="144" x="56" y="30" />
  <rect fill="rgb(0,0,0)" height="40" stroke="rgb(0,0,0)" style="filter:url(#filter_blur);opacity:0.7;fill-opacity:1" width="128" x="835" y="46" />
  <rect fill="rgb(0,0,0)" height="40" stroke="rgb(0,0,0)" style="filter:url(#filter_blur);opacity:0.7;fill-opacity:1" width="128" x="835" y="126" />
  <rect fill="rgb(0,0,0)" height="40" stroke="rgb(0,0,0)" style="filter:url(#filter_blur);opacity:0.7;fill-opacity:1" width="128" x="643" y="46" />
  <rect fill="rgb(0,0,0)" height="40" stroke="rgb(0,0,0)" style="filter:url(#filter_blur);opacity:0.7;fill-opacity:1" width="128" x="451" y="46" />
  <path d="M 471 222 A20,8 0 0 1 491 214 A20,6 0 0 1 541 214 A20,8 0 0 1 561 222 A20,8 0 0 1 561 238 A20,20 0 0 1 531 238 A20,20 0 0 1 501 238 A20,20 0 0 1 471 238 A20,8 0 0 1 471 222" fill="rgb(0,0,0)" stroke="rgb(0,0,0)" style="filter:url(#filter_blur);opacity:0.7;fill-opacity:1" />
  <rect fill="rgb(0,0,0)" height="40" stroke="rgb(0,0,0)" style="filter:url(#filter_blur);opacity:0.7;fill-opacity:1" width="128" x="259" y="46" />
  <path d="M 87 62 A20,8 0 0 1 107 54 A20,6 0 0 1 157 54 A20,8 0 0 1 177 62 A20,8 0 0 1 177 78 A20,20 0 0 1 147 78 A20,20 0 0 1 117 78 A20,20 0 0 1 87 78 A20,8 0 0 1 87 62" fill="rgb(0,0,0)" stroke="rgb(0,0,0)" style="filter:url(#filter_blur);opacity:0.7;fill-opacity:1" />
  <path d="M 87 142 A20,8 0 0 1 107 134 A20,6 0 0 1 157 134 A20,8 0 0 1 177 142 A20,8 0 0 1 177 158 A20,20 0 0 1 147 158 A20,20 0 0 1 117 158 A20,20 0 0 1 87 158 A20,8 0 0 1 87 142" fill="rgb(0,0,0)" stroke="rgb(0,0,0)" style="filter:url(#filter_blur);opacity:0.7;fill-opacity:1" />
  <rect fill="rgb(255,255,255)" height="40" stroke="rgb(0,0,0)" width="128" x="832" y="40" />
  <text fill="rgb(0,0,0)" font-family="sans-serif" font-size="11" font-style="normal" font-weight="normal" text-anchor="middle" textLength="25" x="896" y="66">LEDs</text>
  <rect fill="rgb(255,255,255)" height="40" stroke="rgb(0,0,0)" width="128" x="832" y="120" />
  <text fill="rgb(0,0,0)" font-family="sans-serif" font-size="11" font-style="normal" font-weight="normal" text-anchor="middle" textLength="19" x="896" y="146">LCD</text>
  <rect fill="rgb(255,255,255)" height="40" stroke="rgb(0,0,0)" width="128" x="640" y="40" />
  <text fill="rgb(0,0,0)" font-family="sans-serif" font-size="11" font-style="normal" font-weight="normal" text-anchor="middle" textLength="43" x="704" y="66">Arduino</text>
  <rect fill="rgb(255,255,255)" height="40" stroke="rgb(0,0,0)" width="128" x="448" y="40" />
  <text fill="rgb(0,0,0)" font-family="sans-serif" font-size="11" font-style="normal" font-weight="normal" text-anchor="middle" textLength="79" x="512" y="66">Python driver</text>
  <path d="M 468 216 A20,8 0 0 1 488 208 A20,6 0 0 1 538 208 A20,8 0 0 1 558 216 A20,8 0 0 1 558 232 A20,20 0 0 1 528 232 A20,20 0 0 1 498 232 A20,20 0 0 1 468 232 A20,8 0 0 1 468 216" fill="rgb(255,255,255)" stroke="rgb(0,0,0)" />
  <text fill="rgb(0,0,0)" font-family="sans-serif" font-size="11" font-style="normal" font-weight="normal" text-anchor="middle" textLength="43" x="513" y="226">Browser</text>
  <rect fill="rgb(255,255,255)" height="40" stroke="rgb(0,0,0)" width="128" x="256" y="40" />
  <text fill="rgb(0,0,0)" font-family="sans-serif" font-size="11" font-style="normal" font-weight="normal" text-anchor="middle" textLength="31" x="320" y="66">Flask</text>
  <path d="M 84 56 A20,8 0 0 1 104 48 A20,6 0 0 1 154 48 A20,8 0 0 1 174 56 A20,8 0 0 1 174 72 A20,20 0 0 1 144 72 A20,20 0 0 1 114 72 A20,20 0 0 1 84 72 A20,8 0 0 1 84 56" fill="rgb(255,255,255)" stroke="rgb(0,0,0)" />
  <text fill="rgb(0,0,0)" font-family="sans-serif" font-size="11" font-style="normal" font-weight="normal" text-anchor="middle" textLength="31" x="129" y="66">SEPTA</text>
  <path d="M 84 136 A20,8 0 0 1 104 128 A20,6 0 0 1 154 128 A20,8 0 0 1 174 136 A20,8 0 0 1 174 152 A20,20 0 0 1 144 152 A20,20 0 0 1 114 152 A20,20 0 0 1 84 152 A20,8 0 0 1 84 136" fill="rgb(255,255,255)" stroke="rgb(0,0,0)" />
  <text fill="rgb(0,0,0)" font-family="sans-serif" font-size="11" font-style="normal" font-weight="normal" text-anchor="middle" textLength="67" x="129" y="146">Google Maps</text>
  <path d="M 768 60 L 824 60" fill="none" stroke="rgb(0,0,0)" />
  <polygon fill="rgb(0,0,0)" points="831,60 824,56 824,64 831,60" stroke="rgb(0,0,0)" />
  <path d="M 768 60 L 800 60" fill="none" stroke="rgb(0,0,0)" />
  <path d="M 800 60 L 800 140" fill="none" stroke="rgb(0,0,0)" />
  <path d="M 800 140 L 824 140" fill="none" stroke="rgb(0,0,0)" />
  <polygon fill="rgb(0,0,0)" points="831,140 824,136 824,144 831,140" stroke="rgb(0,0,0)" />
  <path d="M 576 60 L 632 60" fill="none" stroke="rgb(0,0,0)" />
  <polygon fill="rgb(0,0,0)" points="639,60 632,56 632,64 639,60" stroke="rgb(0,0,0)" />
  <path d="M 384 60 L 416 60" fill="none" stroke="rgb(0,0,0)" />
  <path d="M 416 60 L 416 220" fill="none" stroke="rgb(0,0,0)" />
  <path d="M 416 220 L 440 220" fill="none" stroke="rgb(0,0,0)" />
  <polygon fill="rgb(0,0,0)" points="447,220 440,216 440,224 447,220" stroke="rgb(0,0,0)" />
  <path d="M 384 60 L 440 60" fill="none" stroke="rgb(0,0,0)" />
  <polygon fill="rgb(0,0,0)" points="447,60 440,56 440,64 447,60" stroke="rgb(0,0,0)" />
  <path d="M 192 60 L 248 60" fill="none" stroke="rgb(0,0,0)" />
  <polygon fill="rgb(0,0,0)" points="255,60 248,56 248,64 255,60" stroke="rgb(0,0,0)" />
  <path d="M 192 140 L 240 140" fill="none" stroke="rgb(0,0,0)" />
  <path d="M 240 140 L 240 60" fill="none" stroke="rgb(0,0,0)" />
  <path d="M 240 60 L 248 60" fill="none" stroke="rgb(0,0,0)" />
  <polygon fill="rgb(0,0,0)" points="255,60 248,56 248,64 255,60" stroke="rgb(0,0,0)" />
  <text fill="rgb(0,0,0)" font-family="sans-serif" font-size="11" font-style="normal" font-weight="normal" text-anchor="middle" textLength="85" x="704" y="36">Arduino Client</text>
  <text fill="rgb(0,0,0)" font-family="sans-serif" font-size="11" font-style="normal" font-weight="normal" text-anchor="middle" textLength="61" x="512" y="196">Web Client</text>
  <text fill="rgb(0,0,0)" font-family="sans-serif" font-size="11" font-style="normal" font-weight="normal" text-anchor="middle" textLength="61" x="320" y="36">Web Server</text>
  <text fill="rgb(0,0,0)" font-family="sans-serif" font-size="11" font-style="normal" font-weight="normal" text-anchor="middle" textLength="67" x="128" y="36">DataSources</text>
</svg>
